<svg xmlns="http://www.w3.org/2000/svg" width="1000" height="750" viewBox="0 0 1000 750">
    <rect x="0" y="0" width="200" height="150" fill="#FF0000"/><text x="100" y="75" text-anchor="middle" dominant-baseline="middle" fill="#ffffff" font-size="20" font-family="Arial, sans-serif" font-weight="bold">Red</text>
    <rect x="200" y="0" width="200" height="150" fill="#EE4B2B"/><text x="300" y="75" text-anchor="middle" dominant-baseline="middle" fill="#ffffff" font-size="20" font-family="Arial, sans-serif" font-weight="bold">Bright Red</text>
    <rect x="400" y="0" width="200" height="150" fill="#DC143C"/><text x="500" y="75" text-anchor="middle" dominant-baseline="middle" fill="#ffffff" font-size="20" font-family="Arial, sans-serif" font-weight="bold">Crimson</text>
    <rect x="600" y="0" width="200" height="150" fill="#FF2400"/><text x="700" y="75" text-anchor="middle" dominant-baseline="middle" fill="#ffffff" font-size="20" font-family="Arial, sans-serif" font-weight="bold">Scarlet</text>
    <rect x="800" y="0" width="200" height="150" fill="#F62817"/><text x="900" y="75" text-anchor="middle" dominant-baseline="middle" fill="#ffffff" font-size="20" font-family="Arial, sans-serif" font-weight="bold">Fire Engine Red</text>
    
    <rect x="0" y="150" width="200" height="150" fill="#E0115F"/><text x="100" y="225" text-anchor="middle" dominant-baseline="middle" fill="#ffffff" font-size="20" font-family="Arial, sans-serif" font-weight="bold">Ruby Red</text>
    <rect x="200" y="150" width="200" height="150" fill="#FF3131"/><text x="300" y="225" text-anchor="middle" dominant-baseline="middle" fill="#ffffff" font-size="20" font-family="Arial, sans-serif" font-weight="bold">Neon Red</text>
    <rect x="400" y="150" width="200" height="150" fill="#D2042D"/><text x="500" y="225" text-anchor="middle" dominant-baseline="middle" fill="#ffffff" font-size="20" font-family="Arial, sans-serif" font-weight="bold">Cherry Red</text>
    <rect x="600" y="150" width="200" height="150" fill="#880808"/><text x="700" y="225" text-anchor="middle" dominant-baseline="middle" fill="#ffffff" font-size="20" font-family="Arial, sans-serif" font-weight="bold">Blood Red</text>
    <rect x="800" y="150" width="200" height="150" fill="#D22B2B"/><text x="900" y="225" text-anchor="middle" dominant-baseline="middle" fill="#ffffff" font-size="20" font-family="Arial, sans-serif" font-weight="bold">Cadmium Red</text>
    
    <rect x="0" y="300" width="200" height="150" fill="#E34234"/><text x="100" y="375" text-anchor="middle" dominant-baseline="middle" fill="#ffffff" font-size="20" font-family="Arial, sans-serif" font-weight="bold">Vermilion</text>
    <rect x="200" y="300" width="200" height="150" fill="#FF4040"/><text x="300" y="375" text-anchor="middle" dominant-baseline="middle" fill="#ffffff" font-size="20" font-family="Arial, sans-serif" font-weight="bold">Coral Red</text>
    <rect x="400" y="300" width="200" height="150" fill="#8B0000"/><text x="500" y="375" text-anchor="middle" dominant-baseline="middle" fill="#ffffff" font-size="20" font-family="Arial, sans-serif" font-weight="bold">Dark Red</text>
    <rect x="600" y="300" width="200" height="150" fill="#800020"/><text x="700" y="375" text-anchor="middle" dominant-baseline="middle" fill="#ffffff" font-size="20" font-family="Arial, sans-serif" font-weight="bold">Burgundy</text>
    <rect x="800" y="300" width="200" height="150" fill="#E30B5C"/><text x="900" y="375" text-anchor="middle" dominant-baseline="middle" fill="#ffffff" font-size="20" font-family="Arial, sans-serif" font-weight="bold">Raspberry</text>
    
    <rect x="0" y="450" width="200" height="150" fill="#E35335"/><text x="100" y="525" text-anchor="middle" dominant-baseline="middle" fill="#ffffff" font-size="20" font-family="Arial, sans-serif" font-weight="bold">Poppy</text>
    <rect x="200" y="450" width="200" height="150" fill="#FF6347"/><text x="300" y="525" text-anchor="middle" dominant-baseline="middle" fill="#ffffff" font-size="20" font-family="Arial, sans-serif" font-weight="bold">Tomato</text>
    <rect x="400" y="450" width="200" height="150" fill="#CD5C5C"/><text x="500" y="525" text-anchor="middle" dominant-baseline="middle" fill="#ffffff" font-size="20" font-family="Arial, sans-serif" font-weight="bold">Indian Red</text>
    <rect x="600" y="450" width="200" height="150" fill="#AA4A44"/><text x="700" y="525" text-anchor="middle" dominant-baseline="middle" fill="#ffffff" font-size="20" font-family="Arial, sans-serif" font-weight="bold">Brick Red</text>
    <rect x="800" y="450" width="200" height="150" fill="#C21E56"/><text x="900" y="525" text-anchor="middle" dominant-baseline="middle" fill="#ffffff" font-size="20" font-family="Arial, sans-serif" font-weight="bold">Rose Red</text>
    
    <rect x="0" y="600" width="200" height="150" fill="#931314"/><text x="100" y="675" text-anchor="middle" dominant-baseline="middle" fill="#ffffff" font-size="20" font-family="Arial, sans-serif" font-weight="bold">Saffron Red</text>
    <rect x="200" y="600" width="200" height="150" fill="#4A0404"/><text x="300" y="675" text-anchor="middle" dominant-baseline="middle" fill="#ffffff" font-size="20" font-family="Arial, sans-serif" font-weight="bold">Oxblood</text>
    <rect x="400" y="600" width="200" height="150" fill="#9A2A2A"/><text x="500" y="675" text-anchor="middle" dominant-baseline="middle" fill="#ffffff" font-size="20" font-family="Arial, sans-serif" font-weight="bold">Garnet</text>
    <rect x="600" y="600" width="200" height="150" fill="#800000"/><text x="700" y="675" text-anchor="middle" dominant-baseline="middle" fill="#ffffff" font-size="20" font-family="Arial, sans-serif" font-weight="bold">Maroon</text>
    <rect x="800" y="600" width="200" height="150" fill="#A42A04"/><text x="900" y="675" text-anchor="middle" dominant-baseline="middle" fill="#ffffff" font-size="20" font-family="Arial, sans-serif" font-weight="bold">Venetian Red</text>
</svg>
